<?xml version="1.0" encoding="UTF-8" standalone="no"?>
<!-- Created with Inkscape (http://www.inkscape.org/) -->

<svg
   width="200"
   height="200"
   viewBox="0 0 52.91666 52.916659"
   version="1.1"
   id="svg5"
   inkscape:version="1.3 (0e150ed6c4, 2023-07-21)"
   sodipodi:docname="logo_completo.svg"
   xml:space="preserve"
   xmlns:inkscape="http://www.inkscape.org/namespaces/inkscape"
   xmlns:sodipodi="http://sodipodi.sourceforge.net/DTD/sodipodi-0.dtd"
   xmlns="http://www.w3.org/2000/svg"
   xmlns:svg="http://www.w3.org/2000/svg"><sodipodi:namedview
     id="namedview7"
     pagecolor="#4e4e4e"
     bordercolor="#000000"
     borderopacity="0"
     inkscape:showpageshadow="2"
     inkscape:pageopacity="0"
     inkscape:pagecheckerboard="0"
     inkscape:deskcolor="#2b2b2b"
     inkscape:document-units="px"
     showgrid="true"
     showborder="false"
     inkscape:zoom="0.1767767"
     inkscape:cx="-124.45079"
     inkscape:cy="752.36162"
     inkscape:window-width="1920"
     inkscape:window-height="1057"
     inkscape:window-x="1358"
     inkscape:window-y="0"
     inkscape:window-maximized="1"
     inkscape:current-layer="layer1"
     showguides="false"><inkscape:grid
       type="xygrid"
       id="grid3227"
       units="mm"
       spacingx="99.999998"
       spacingy="99.999998"
       empspacing="1"
       color="#ffffff"
       opacity="0"
       empcolor="#5cff1a"
       empopacity="0.14901961"
       originx="0"
       originy="0"
       dotted="false"
       visible="true"
       snapvisiblegridlinesonly="true"
       enabled="false" /><inkscape:grid
       type="xygrid"
       id="grid32233"
       units="mm"
       spacingy="9.9999998"
       spacingx="9.9999998"
       empspacing="1"
       color="#33ffff"
       opacity="0.12156863"
       empcolor="#33ffff"
       empopacity="0.10196078"
       originx="0"
       originy="0"
       dotted="false"
       visible="true"
       enabled="false" /><inkscape:grid
       type="xygrid"
       id="grid32235"
       empspacing="1"
       dotted="false"
       empcolor="#0dff01"
       empopacity="0.05098039"
       color="#33ff55"
       opacity="0"
       units="mm"
       spacingy="0.99999998"
       spacingx="0.99999998"
       originx="0"
       originy="0"
       visible="true"
       enabled="false" /><inkscape:grid
       type="xygrid"
       id="grid32237"
       units="mm"
       color="#e666ff"
       opacity="0"
       empcolor="#e666ff"
       empopacity="0.03137255"
       dotted="true"
       spacingy="0.49999999"
       spacingx="0.49999999"
       originy="0"
       originx="0"
       empspacing="1"
       visible="true"
       enabled="false" /></sodipodi:namedview><defs
     id="defs2" /><g
     inkscape:label="Capa 1"
     inkscape:groupmode="layer"
     id="layer1"><rect
       style="fill:#dfdfdf;stroke-width:1.32292;stroke-linecap:round;-inkscape-stroke:none"
       id="rect3"
       width="66.145821"
       height="66.145821"
       x="-218.54581"
       y="-9.7895794" /><rect
       style="fill:#858585;fill-opacity:1;stroke-width:1.32292;stroke-linecap:round;-inkscape-stroke:none"
       id="rect2"
       width="245.45085"
       height="199.0623"
       x="-60.242546"
       y="231.98991" /><path
       style="display:inline;fill:#ecb67a;stroke:none;stroke-width:2;stop-color:#000000;fill-opacity:1"
       d="m 34.400763,12.968268 c -0.45181,2.40822 -2.15874,5.094342 -4.80301,5.306892 C 33.803173,3.826932 24.676563,-3.831026 10.094609,1.922199 l 1.006248,1.767552 c -2.385325,2.11287 -2.858758,3.872281 -3.354333,6.838919 2.966609,0.495575 4.72602,0.969008 6.838889,3.354338 l 1.767552,-1.00625 C 22.106191,27.4587 14.448233,36.58531 0,32.3799 c 0.212555,2.64426 2.898683,4.35119 5.3069,4.80301 -0.08236,3.16071 0.452648,5.93353 2.439595,7.98719 2.053691,1.98695 4.826509,2.52196 7.987225,2.4396 0.451811,2.40822 2.158741,5.09435 4.80301,5.3069 -4.205416,-14.44824 4.921193,-22.10619 19.503143,-16.35297 l -1.00624,1.76755 c 2.38532,2.11287 2.85875,3.87228 3.35436,6.83892 2.96663,-0.49554 4.72605,-0.96898 6.83892,-3.3543 l 1.76755,1.00625 c 5.75322,-14.58195 -1.90473,-23.70856 -16.35297,-19.50315 0.21256,-2.64427 2.89868,-4.35119 5.3069,-4.80301 -0.0824,-3.160712 0.45265,-5.933532 2.4396,-7.98722 -2.05369,1.986947 -4.82651,2.521958 -7.98723,2.439598 z"
       id="use14892-8-7-5-2-5"
       sodipodi:nodetypes="ccccccccccccccccccccc" /><text
       xml:space="preserve"
       style="font-style:italic;font-size:8.08165px;line-height:1.2;font-family:'Playfair Display';-inkscape-font-specification:'Playfair Display Italic';letter-spacing:0.909185px;word-spacing:0px;text-orientation:upright;fill:#ffffff;stroke-width:1.32291;stroke-linecap:round;-inkscape-stroke:none"
       x="0.28286695"
       y="63.386848"
       id="text2"><tspan
         sodipodi:role="line"
         id="tspan2"
         style="stroke-width:1.32291"
         x="0.28286695"
         y="63.386848">Estilo Amati</tspan></text><rect
       style="fill:#28163a;stroke-width:1.32292;stroke-linecap:round;-inkscape-stroke:none;fill-opacity:1"
       id="rect3-9"
       width="52.91666"
       height="52.916611"
       x="152.82199"
       y="84.0028" /><rect
       style="fill:#0b6166;fill-opacity:1;stroke-width:1.32292;stroke-linecap:round;-inkscape-stroke:none"
       id="rect3-9-2"
       width="52.91666"
       height="52.916611"
       x="-13.758329"
       y="150.5479" /><path
       style="display:inline;fill:#ffffff;stroke:none;stroke-width:2;stop-color:#000000"
       d="m 187.22276,96.971073 c -0.45181,2.40822 -2.15874,5.094337 -4.80301,5.306887 4.20542,-14.448217 -4.92119,-22.106177 -19.50314,-16.352957 l 1.00624,1.76756 c -2.38532,2.11287 -2.85875,3.87228 -3.35433,6.83892 2.96661,0.49557 4.72602,0.969 6.83889,3.35433 l 1.76755,-1.00625 c 5.75323,14.581937 -1.90473,23.708547 -16.35296,19.503137 0.21255,2.64426 2.89868,4.35119 5.3069,4.80301 -0.0824,3.16071 0.45264,5.93353 2.43959,7.98719 2.05369,1.98695 4.82651,2.52196 7.98723,2.43961 0.45181,2.40822 2.15874,5.09434 4.80301,5.3069 -4.20542,-14.44824 4.92119,-22.10619 19.50314,-16.35297 l -1.00624,1.76755 c 2.38532,2.11287 2.85875,3.87228 3.35436,6.83892 2.96663,-0.49554 4.72605,-0.96898 6.83892,-3.3543 l 1.76755,1.00625 c 5.75322,-14.58195 -1.90473,-23.70856 -16.35297,-19.50315 0.21256,-2.64427 2.89868,-4.35119 5.3069,-4.80301 -0.0824,-3.160717 0.45265,-5.933537 2.4396,-7.987217 -2.05369,1.98694 -4.82651,2.52195 -7.98723,2.43959 z"
       id="use14892-8-7-5-2-5-8"
       sodipodi:nodetypes="ccccccccccccccccccccc" /><text
       xml:space="preserve"
       style="font-style:italic;font-size:16.6719px;line-height:1.2;font-family:'Playfair Display';-inkscape-font-specification:'Playfair Display Italic';letter-spacing:1.87559px;word-spacing:0px;text-orientation:upright;fill:#ffffff;stroke-width:1.32291;stroke-linecap:round;-inkscape-stroke:none"
       x="212.48077"
       y="106.96835"
       id="text2-5"><tspan
         sodipodi:role="line"
         id="tspan2-2"
         style="stroke-width:1.32291"
         x="212.48077"
         y="106.96835">Estilo </tspan><tspan
         sodipodi:role="line"
         style="stroke-width:1.32291"
         x="212.48077"
         y="126.97463"
         id="tspan4">Amati</tspan></text><path
       style="display:inline;fill:#2ad4ff;stroke:none;stroke-width:2;stop-color:#000000"
       d="m 193.15074,177.27449 c -0.45181,2.40822 -2.15874,5.09434 -4.80301,5.30689 4.20542,-14.44822 -4.92119,-22.10618 -19.50314,-16.35296 l 1.00624,1.76756 c -2.38532,2.11287 -2.85875,3.87228 -3.35433,6.83892 2.96661,0.49557 4.72602,0.969 6.83889,3.35433 l 1.76755,-1.00625 c 5.75323,14.58194 -1.90473,23.70855 -16.35296,19.50314 0.21255,2.64426 2.89868,4.35119 5.3069,4.80301 -0.0824,3.16071 0.45264,5.93353 2.43959,7.98719 2.05369,1.98695 4.82651,2.52196 7.98723,2.43961 0.45181,2.40822 2.15874,5.09434 4.80301,5.3069 -4.20542,-14.44824 4.92119,-22.10619 19.50314,-16.35297 l -1.00624,1.76755 c 2.38532,2.11287 2.85875,3.87228 3.35436,6.83892 2.96663,-0.49554 4.72605,-0.96898 6.83892,-3.3543 l 1.76755,1.00625 c 5.75322,-14.58195 -1.90473,-23.70856 -16.35297,-19.50315 0.21256,-2.64427 2.89868,-4.35119 5.3069,-4.80301 -0.0824,-3.16072 0.45265,-5.93354 2.4396,-7.98722 -2.05369,1.98694 -4.82651,2.52195 -7.98723,2.43959 z"
       id="use14892-8-7-5-2-5-8-9"
       sodipodi:nodetypes="ccccccccccccccccccccc" /><text
       xml:space="preserve"
       style="font-style:italic;font-size:16.6719px;line-height:1.2;font-family:'Playfair Display';-inkscape-font-specification:'Playfair Display Italic';letter-spacing:1.87559px;word-spacing:0px;text-orientation:upright;fill:#2ad4ff;stroke-width:1.32291;stroke-linecap:round;-inkscape-stroke:none"
       x="218.40875"
       y="187.27177"
       id="text2-5-2"><tspan
         sodipodi:role="line"
         id="tspan2-2-4"
         style="stroke-width:1.32291;fill:#2ad4ff"
         x="218.40875"
         y="187.27177">Estilo </tspan><tspan
         sodipodi:role="line"
         style="stroke-width:1.32291;fill:#2ad4ff"
         x="218.40875"
         y="207.27805"
         id="tspan4-8">Amati</tspan></text><rect
       style="fill:#1a1a1a;fill-opacity:1;stroke-width:1.32292;stroke-linecap:round;-inkscape-stroke:none"
       id="rect1"
       width="70.345329"
       height="59.49419"
       x="154.90939"
       y="-11.973673" /><rect
       style="fill:#2e846f;fill-opacity:1;stroke-width:1.32292;stroke-linecap:round;-inkscape-stroke:none"
       id="rect1-8-6"
       width="70.345329"
       height="59.49419"
       x="-342.80115"
       y="455.17917" /><rect
       style="fill:#842e45;fill-opacity:1;stroke-width:1.32292;stroke-linecap:round;-inkscape-stroke:none"
       id="rect1-8-4-25"
       width="70.345329"
       height="59.49419"
       x="-272.45581"
       y="455.17917" /><rect
       style="fill:#84422e;fill-opacity:1;stroke-width:1.32292;stroke-linecap:round;-inkscape-stroke:none"
       id="rect1-8-0-5"
       width="70.345329"
       height="59.49419"
       x="-342.80115"
       y="637.49146" /><rect
       style="fill:#2b4c87;fill-opacity:1;stroke-width:1.32292;stroke-linecap:round;-inkscape-stroke:none"
       id="rect1-8-4-2-0"
       width="70.345329"
       height="59.49419"
       x="-272.45581"
       y="637.49146" /><rect
       style="fill:#4c842e;fill-opacity:1;stroke-width:1.32292;stroke-linecap:round;-inkscape-stroke:none"
       id="rect1-8-7-0"
       width="70.345329"
       height="59.49419"
       x="-342.80115"
       y="549.40527" /><rect
       style="fill:#532b86;fill-opacity:1;stroke-width:1.32292;stroke-linecap:round;-inkscape-stroke:none"
       id="rect1-8-4-6-3"
       width="70.345329"
       height="59.49419"
       x="-272.45581"
       y="549.40527" /><rect
       style="fill:#0f2e27;fill-opacity:1;stroke-width:1.32292;stroke-linecap:round;-inkscape-stroke:none"
       id="rect1-8-6-4"
       width="70.345329"
       height="59.49419"
       x="-246.59161"
       y="800.36444" /><rect
       style="fill:#2e0f18;fill-opacity:1;stroke-width:1.32292;stroke-linecap:round;-inkscape-stroke:none"
       id="rect1-8-4-25-2"
       width="70.345329"
       height="59.49419"
       x="-176.24628"
       y="800.36444" /><rect
       style="fill:#2e170f;fill-opacity:1;stroke-width:1.32292;stroke-linecap:round;-inkscape-stroke:none"
       id="rect1-8-0-5-7"
       width="70.345329"
       height="59.49419"
       x="-246.59161"
       y="982.67676" /><rect
       style="fill:#0f192c;fill-opacity:1;stroke-width:1.32292;stroke-linecap:round;-inkscape-stroke:none"
       id="rect1-8-4-2-0-1"
       width="70.345329"
       height="59.49419"
       x="-176.24628"
       y="982.67676" /><rect
       style="fill:#1a2e0f;fill-opacity:1;stroke-width:1.32292;stroke-linecap:round;-inkscape-stroke:none"
       id="rect1-8-7-0-9"
       width="70.345329"
       height="59.49419"
       x="-246.59161"
       y="894.59058" /><rect
       style="fill:#1d0f2e;fill-opacity:1;stroke-width:1.32292;stroke-linecap:round;-inkscape-stroke:none"
       id="rect1-8-4-6-3-1"
       width="70.345329"
       height="59.49419"
       x="-176.24628"
       y="894.59058" /><circle
       style="fill:#ff00ff;stroke-width:1.32292;stroke-linecap:round;-inkscape-stroke:none"
       id="path1"
       cx="-185.4729"
       cy="23.283331"
       r="33.07291" /><path
       style="display:inline;fill:#000000;fill-opacity:1;stroke:none;stroke-width:2;stop-color:#000000"
       d="m -177.53047,9.793299 c -0.45181,2.40822 -2.15874,5.094342 -4.80301,5.306892 4.20542,-14.44822803 -4.92119,-22.106186 -19.50314,-16.352961 l 1.00625,1.76755197 c -2.38533,2.11287003 -2.85876,3.87228103 -3.35434,6.83891903 2.96661,0.495575 4.72602,0.969008 6.83889,3.354338 l 1.76756,-1.00625 c 5.75322,14.581942 -1.90474,23.708552 -16.35297,19.503142 0.21256,2.64426 2.89868,4.35119 5.3069,4.80301 -0.0824,3.16071 0.45265,5.93353 2.4396,7.98719 2.05369,1.98695 4.8265,2.52196 7.98722,2.4396 0.45181,2.40822 2.15874,5.09435 4.80301,5.3069 -4.20542,-14.44824 4.92119,-22.10619 19.50314,-16.35297 l -1.00624,1.76755 c 2.38532,2.11287 2.85875,3.87228 3.35436,6.83892 2.96663,-0.49554 4.72605,-0.96898 6.83892,-3.3543 l 1.76755,1.00625 c 5.75322,-14.58195 -1.90473,-23.70856 -16.35297,-19.50315 0.21256,-2.64427 2.89868,-4.35119 5.3069,-4.80301 -0.0824,-3.160712 0.45265,-5.933532 2.4396,-7.98722 -2.05369,1.986947 -4.82651,2.521958 -7.98723,2.439598 z"
       id="use14892-8-7-5-2-5-6"
       sodipodi:nodetypes="ccccccccccccccccccccc" /></g></svg>
